<svg width="45" height="75.2" viewBox="0 0 45 75.2" xmlns="http://www.w3.org/2000/svg"><g id="svgGroup" stroke-linecap="round" fill-rule="nonzero" font-size="9pt" stroke="#000000" stroke-width="0.25mm" fill="#ffffff" style="stroke:#000000;stroke-width:0.25mm;fill:#ffffff"><path d="M 2 51.7 L 2.05 50.8 Q 2.1 49.9 2.2 49 Q 2.288 48.213 2.298 48.038 A 0.658 0.658 0 0 0 2.3 48 Q 2.9 41.3 4.6 34.8 A 136.274 136.274 0 0 1 5.506 31.502 A 117.621 117.621 0 0 1 8.45 22.6 A 214.414 214.414 0 0 1 8.458 22.578 Q 10.604 16.891 12.7 12.45 Q 14.8 8 16.15 5.25 Q 17.5 2.5 17.5 2.1 A 0.987 0.987 0 0 0 17.491 1.971 Q 17.431 1.512 16.95 0.9 Q 16.4 0.2 15.7 0.2 A 1.521 1.521 0 0 0 15.272 0.263 Q 14.644 0.446 14.016 1.167 A 6.696 6.696 0 0 0 13.5 1.85 Q 12.4 3.5 11.5 5.3 A 60.742 60.742 0 0 0 10.609 7.22 Q 9.212 10.367 7.7 14.6 A 141.185 141.185 0 0 0 6.235 18.927 A 170.172 170.172 0 0 0 3.95 26.7 Q 2.2 33.2 1.1 39.4 A 89.969 89.969 0 0 0 0.925 40.42 Q 0 46.007 0 50.5 Q 0 51.1 0.05 51.65 A 12.957 12.957 0 0 1 0.073 51.939 A 11.163 11.163 0 0 1 0.1 52.7 Q 0.2 53.6 0.55 54.65 A 2.535 2.535 0 0 0 0.635 54.871 Q 0.801 55.248 1.068 55.492 A 1.694 1.694 0 0 0 1.9 55.9 A 0.691 0.691 0 0 0 1.998 55.907 Q 2.618 55.907 2.85 54.7 A 781.679 781.679 0 0 1 2.934 54.264 Q 3.064 53.592 3.143 53.189 A 89.482 89.482 0 0 1 3.2 52.9 A 12.068 12.068 0 0 1 3.207 52.866 Q 3.814 49.776 6.35 45.4 Q 8.9 41 12.1 37.4 Q 12.7 36.7 14.15 35.2 Q 15.6 33.7 17.15 32.45 Q 18.7 31.2 19.5 31.2 A 0.941 0.941 0 0 1 19.538 31.201 Q 20.067 31.222 20.173 31.848 A 2.115 2.115 0 0 1 20.2 32.2 Q 20.2 33.1 19.6 34.9 Q 19.1 36.5 17.65 39.5 Q 16.88 41.094 15.996 42.913 A 3238.524 3238.524 0 0 1 14.35 46.3 Q 12.5 50.1 10.8 54.15 Q 9.1 58.2 7.95 62.05 A 35.271 35.271 0 0 0 7.632 63.182 Q 7.228 64.72 7.02 66.112 A 18.929 18.929 0 0 0 6.8 68.9 A 10.03 10.03 0 0 0 6.863 70.039 A 7.961 7.961 0 0 0 7.95 73.3 Q 8.687 74.517 9.895 74.955 A 4.395 4.395 0 0 0 11.4 75.2 A 5.075 5.075 0 0 0 12.39 75.101 A 6.176 6.176 0 0 0 13.65 74.7 A 10.713 10.713 0 0 0 14.043 74.52 Q 14.924 74.094 15.5 73.6 A 3.267 3.267 0 0 0 15.588 73.545 Q 15.825 73.393 16.063 73.184 A 5.578 5.578 0 0 0 16.5 72.75 A 2.224 2.224 0 0 0 16.796 72.346 A 1.504 1.504 0 0 0 17 71.6 A 0.442 0.442 0 0 0 16.987 71.489 Q 16.952 71.353 16.819 71.315 A 0.432 0.432 0 0 0 16.7 71.3 A 0.201 0.201 0 0 0 16.698 71.3 Q 16.453 71.303 15.816 71.894 A 11.951 11.951 0 0 0 15.5 72.2 Q 15 72.6 14.25 73.05 A 3.541 3.541 0 0 1 14.014 73.18 A 2.902 2.902 0 0 1 12.7 73.5 A 1.929 1.929 0 0 1 11.329 72.975 A 2.607 2.607 0 0 1 10.85 72.35 A 7.016 7.016 0 0 1 10.272 71.001 A 9.592 9.592 0 0 1 9.95 69.6 A 22.276 22.276 0 0 1 9.793 68.381 A 17.893 17.893 0 0 1 9.7 66.6 Q 9.7 61.9 11.55 57.55 Q 13.4 53.2 15.7 49.3 Q 17.4 46.5 19.45 43.35 Q 21.5 40.2 22.95 37.25 A 18.942 18.942 0 0 0 23.62 35.73 Q 23.985 34.788 24.179 33.933 A 8.292 8.292 0 0 0 24.4 32.1 A 6.9 6.9 0 0 0 24.398 31.942 Q 24.378 31.054 24.125 30.486 A 1.694 1.694 0 0 0 23.6 29.8 A 2.907 2.907 0 0 0 22.74 29.355 A 3.379 3.379 0 0 0 21.7 29.2 Q 19 29.2 16.5 31.15 A 32.599 32.599 0 0 0 15.243 32.182 A 37.217 37.217 0 0 0 11.7 35.7 A 63.255 63.255 0 0 0 10.273 37.431 A 55.8 55.8 0 0 0 4 47.2 Q 3.4 48.2 2.85 49.3 Q 2.3 50.4 2.1 51.6 L 2 51.6 L 2 51.7 Z M 28.6 65.5 A 11.192 11.192 0 0 1 28.024 63.987 Q 27.525 62.368 27.201 60.033 A 43.963 43.963 0 0 1 27.1 59.25 A 66.724 66.724 0 0 1 26.726 54.856 Q 26.6 52.51 26.6 49.9 Q 26.6 43.8 27.2 37.2 A 91.904 91.904 0 0 0 25.04 39.962 A 83.208 83.208 0 0 0 24.75 40.35 Q 23.811 41.616 23.171 42.315 A 8.847 8.847 0 0 1 22.9 42.6 Q 22.633 42.868 22.365 42.956 A 0.838 0.838 0 0 1 22.1 43 A 0.812 0.812 0 0 1 21.722 42.918 Q 21.3 42.699 21.3 41.9 A 2.244 2.244 0 0 1 21.436 41.165 Q 21.695 40.419 22.45 39.5 A 31.398 31.398 0 0 1 24.003 37.753 A 38.786 38.786 0 0 1 25.1 36.65 Q 26.6 35.2 27.5 34.4 A 186.371 186.371 0 0 1 29.252 20.965 A 170.563 170.563 0 0 1 29.4 20.1 Q 30.431 14.17 31.721 9.533 A 73.262 73.262 0 0 1 32.15 8.05 A 40.214 40.214 0 0 1 32.991 5.536 Q 33.894 3.127 34.875 1.701 A 7.814 7.814 0 0 1 35.5 0.9 Q 36.4 0 37.6 0 A 3.044 3.044 0 0 1 38.428 0.107 A 2.34 2.34 0 0 1 39.4 0.65 A 2.151 2.151 0 0 1 40.069 1.956 A 3.054 3.054 0 0 1 40.1 2.4 A 4.132 4.132 0 0 1 40.009 3.214 Q 39.777 4.361 38.95 6.05 Q 37.8 8.4 36.3 11.4 Q 34.8 14.3 33.4 19.9 A 148.709 148.709 0 0 0 31.767 27.252 A 181.334 181.334 0 0 0 30.9 32 Q 33.9 30.4 37.3 30.4 A 10.281 10.281 0 0 1 39.538 30.628 Q 41.864 31.147 43.15 32.85 A 9.107 9.107 0 0 1 44.898 37.217 A 11.979 11.979 0 0 1 45 38.8 A 18.296 18.296 0 0 1 44.512 42.917 A 23.155 23.155 0 0 1 43.75 45.5 A 36.62 36.62 0 0 1 40.978 51.528 A 33.753 33.753 0 0 1 40.7 52 A 38.529 38.529 0 0 1 39.364 54.081 Q 38.676 55.077 38.002 55.89 A 18.627 18.627 0 0 1 37.2 56.8 L 35.1 58.9 A 3.712 3.712 0 0 1 32.665 59.987 A 4.967 4.967 0 0 1 32.3 60 A 2.646 2.646 0 0 1 31.522 59.892 A 1.937 1.937 0 0 1 30.4 59 Q 29.8 58 29.8 56.8 A 3.529 3.529 0 0 1 29.849 56.251 Q 29.941 55.676 30.203 54.858 A 21.168 21.168 0 0 1 30.5 54 Q 31.2 52.1 32.25 49.9 A 83.078 83.078 0 0 1 34.126 46.203 A 75.252 75.252 0 0 1 34.4 45.7 A 73.643 73.643 0 0 1 34.931 44.75 Q 35.7 43.4 36.3 42.5 Q 36.7 41.8 37.45 40.75 Q 38.069 39.884 38.449 39.732 A 0.409 0.409 0 0 1 38.6 39.7 A 0.183 0.183 0 0 1 38.705 39.729 Q 38.777 39.777 38.794 39.907 A 0.693 0.693 0 0 1 38.8 40 A 1.054 1.054 0 0 1 38.769 40.234 Q 38.684 40.599 38.37 41.215 A 11.493 11.493 0 0 1 38.3 41.35 Q 37.8 42.3 37.3 43.1 A 106.522 106.522 0 0 0 36.508 44.638 Q 36.16 45.325 35.783 46.091 A 204.107 204.107 0 0 0 35 47.7 A 66.464 66.464 0 0 0 32.763 52.884 A 61.102 61.102 0 0 0 32.7 53.05 Q 31.751 55.564 31.703 57.223 A 6.034 6.034 0 0 0 31.7 57.4 Q 31.7 57.944 31.931 58.118 A 0.434 0.434 0 0 0 32.2 58.2 Q 32.7 58.2 33.45 57.45 A 24.356 24.356 0 0 0 34.31 56.543 A 30.839 30.839 0 0 0 35 55.75 Q 35.737 54.875 36.049 54.467 A 8.466 8.466 0 0 0 36.1 54.4 A 26.095 26.095 0 0 0 38.915 49.345 A 31.452 31.452 0 0 0 39.8 47 A 29.382 29.382 0 0 0 40.805 43.194 A 21.427 21.427 0 0 0 41.2 39.2 A 14.466 14.466 0 0 0 41.045 37.023 Q 40.864 35.834 40.47 34.847 A 7.793 7.793 0 0 0 40.1 34.05 Q 39 32 36.4 32 Q 34.157 32 30.953 33.922 A 25.451 25.451 0 0 0 30.5 34.2 Q 29.7 39.5 29.2 44.75 Q 28.7 50 28.7 54.4 A 53.746 53.746 0 0 0 28.755 56.893 Q 28.809 58.064 28.918 59.105 A 31.815 31.815 0 0 0 28.95 59.4 A 23.884 23.884 0 0 0 29.162 60.878 Q 29.284 61.567 29.439 62.153 A 10.553 10.553 0 0 0 29.7 63 Q 29.944 63.57 30.056 64.041 A 4.028 4.028 0 0 1 30.1 64.25 A 6.208 6.208 0 0 1 30.189 64.967 A 5.259 5.259 0 0 1 30.2 65.3 Q 30.2 66.5 29.6 66.5 Q 29.045 66.5 28.661 65.644 A 3.807 3.807 0 0 1 28.6 65.5 Z" vector-effect="non-scaling-stroke"/></g></svg>